<?xml version="1.0" encoding="UTF-8" standalone="no"?>
<!-- (c) ammap.com | SVG map of France Departments - Low -->

<svg
   version="1.1"
   id="svg210"
   sodipodi:docname="Grand_Est.svg"
   width="201.99951"
   height="172.30157"
   viewBox="0 0 215 180"
   inkscape:version="1.2.2 (732a01da63, 2022-12-09)"
   xmlns:inkscape="http://www.inkscape.org/namespaces/inkscape"
   xmlns:sodipodi="http://sodipodi.sourceforge.net/DTD/sodipodi-0.dtd"
   xmlns="http://www.w3.org/2000/svg"
   xmlns:svg="http://www.w3.org/2000/svg"
   xmlns:amcharts="http://amcharts.com/ammap">
  <sodipodi:namedview
     id="namedview212"
     pagecolor="#ffffff"
     bordercolor="#000000"
     borderopacity="0.25"
     inkscape:showpageshadow="2"
     inkscape:pageopacity="0.0"
     inkscape:pagecheckerboard="0"
     inkscape:deskcolor="#d1d1d1"
     showgrid="false"
     showguides="true"
     inkscape:zoom="3.6298148"
     inkscape:cx="61.435641"
     inkscape:cy="73.419724"
     inkscape:window-width="1920"
     inkscape:window-height="991"
     inkscape:window-x="-9"
     inkscape:window-y="-9"
     inkscape:window-maximized="1"
     inkscape:current-layer="svg210" />
  <defs
     id="defs110">
    <style
       type="text/css"
       id="style108">
			.land
			{
				fill: #CCCCCC;
				fill-opacity: 1;
				stroke:white;
				stroke-opacity: 1;
				stroke-width:0.5;
			}
		</style>
    <amcharts:ammap
       projection="mercator"
       leftLongitude="-5.185287"
       topLatitude="51.089515"
       rightLongitude="9.560553"
       bottomLatitude="41.366975" />
    <!-- All areas are listed in the line below. You can use this list in your script. -->
    <!--{id:"FR-01"},{id:"FR-02"},{id:"FR-03"},{id:"FR-04"},{id:"FR-05"},{id:"FR-06"},{id:"FR-07"},{id:"FR-08"},{id:"FR-09"},{id:"FR-10"},{id:"FR-11"},{id:"FR-12"},{id:"FR-13"},{id:"FR-14"},{id:"FR-15"},{id:"FR-16"},{id:"FR-17"},{id:"FR-18"},{id:"FR-19"},{id:"FR-2A"},{id:"FR-2B"},{id:"FR-21"},{id:"FR-22"},{id:"FR-23"},{id:"FR-24"},{id:"FR-25"},{id:"FR-26"},{id:"FR-27"},{id:"FR-28"},{id:"FR-29"},{id:"FR-30"},{id:"FR-31"},{id:"FR-32"},{id:"FR-33"},{id:"FR-34"},{id:"FR-35"},{id:"FR-36"},{id:"FR-37"},{id:"FR-38"},{id:"FR-39"},{id:"FR-40"},{id:"FR-41"},{id:"FR-42"},{id:"FR-43"},{id:"FR-44"},{id:"FR-45"},{id:"FR-46"},{id:"FR-47"},{id:"FR-48"},{id:"FR-49"},{id:"FR-50"},{id:"FR-51"},{id:"FR-52"},{id:"FR-53"},{id:"FR-54"},{id:"FR-55"},{id:"FR-56"},{id:"FR-57"},{id:"FR-58"},{id:"FR-59"},{id:"FR-60"},{id:"FR-61"},{id:"FR-62"},{id:"FR-63"},{id:"FR-64"},{id:"FR-65"},{id:"FR-66"},{id:"FR-67"},{id:"FR-68"},{id:"FR-69"},{id:"FR-70"},{id:"FR-71"},{id:"FR-72"},{id:"FR-73"},{id:"FR-74"},{id:"FR-75"},{id:"FR-76"},{id:"FR-77"},{id:"FR-78"},{id:"FR-79"},{id:"FR-80"},{id:"FR-81"},{id:"FR-82"},{id:"FR-83"},{id:"FR-84"},{id:"FR-85"},{id:"FR-86"},{id:"FR-87"},{id:"FR-88"},{id:"FR-89"},{id:"FR-90"},{id:"FR-91"},{id:"FR-92"},{id:"FR-93"},{id:"FR-94"},{id:"FR-95"}-->
  </defs>
  <path
     id="FR-08"
     title="Ardennes"
     class="land"
     d="m 60.617052,0.285517 2.52,1.13 -3.17,4.63 0.88,1.74 -2.14,4.46 4.1,3.81 -1.71,2.75 0.19,4.730001 5.97,-0.45 4.11,2.39 2.99,4.45 4.33,-0.16 2.54,2.68 -0.73,2.73 3.4,-0.34 v 0 l -5.54,4.77 -6.22,-3.22 -2.22,5.84 2.16,2.72 -1.42,3.52 1,1.55 -3.05,2.72 0.95,3.89 -4.13,2.35 v 0 l -1.14,-1.84 -1.94,0.21 -0.45,2.23 -7.3,-1.9 -2.33,1.64 -1.5,-3.79 -6.28,1.19 -2.770001,-3.28 -2.99,-0.1 -2.52,-3.62 -8.27,-1.47 v 0 l 1.24,-10.52 -2.26,-3.25 3.8,-0.71 0.47,-2.88 5.13,-5.06 -1.82,-1.47 1.96,-5.670001 -0.88,-5.82 v 0 l 3.23,-0.67 5.660001,2.04 9.99,-3.92 0.62,-6.23 z"
     style="fill:#cccccc;fill-opacity:1;stroke:#ffffff;stroke-width:0.5;stroke-opacity:1" />
  <path
     id="FR-10"
     title="Aube"
     class="land"
     d="m 7.617051,98.045518 3.36,4.940002 7.71,1.45 1.65,-1.42 -0.55,-2.67 2.01,0.36 7.49,-7.950002 2.14,0.94 6.97,-1.75 1.4,2.27 -0.69,3.96 3.530001,3.380002 5.91,2.24 1.97,-1.74 3.21,1.37 v 0 l -1.7,4.36 3.22,4.39999 5.56,3.04 -1.1,1.18 2,3.53 -1.11,9.98 -4.3,-0.75 -3.05,2.37 2.71,2.09 -0.74,1.51 v 0 l -4.98,-0.6 -2.03,1.5 0.77,2.38 -9.970001,0.42 -0.9,2.25 v 0 l -2,-0.32 -0.76,-2.59 -1,1.89 -1.46,-1.12 -2.37,2.08 -2.08,-1.22 -0.64,1.27 -6.22,-0.25 0.77,-3.12 -0.78,-1.35 -1.78,1.15 0.84,-1.98 -3.35,-6.37 -2.14,-0.91 0.36,-2.07 -3.37,1.6 -1.53,-3.1 -2.14,0.33 1.66,-5.23 -4.79,-6.09 -3.14,0.49 -0.58,-1.97 v 0 l -1.31,-5.60999 2.26,-0.67 -1.3,-2.34 3.09,-0.86 -0.67,-1.8 z"
     style="fill:#cccccc;fill-opacity:1;stroke:#ffffff;stroke-width:0.5;stroke-opacity:1" />
  <path
     id="FR-51"
     title="Marne"
     class="land"
     d="m 4.537051,83.295518 8,-10.2 -1.12,-1.83 -2.72,0.39 2.2,-2.54 -1.55,-2.68 0.89,-1.95 5.24,-0.53 -3.92,-3.42 -0.36,-6.39 5.51,-2.72 3.05,0.73 0.18,-2.25 2.83,-1.69 4.69,2.96 0.48,-2.93 v 0 l 8.27,1.47 2.52,3.62 2.99,0.1 2.770001,3.28 6.28,-1.19 1.5,3.79 2.33,-1.64 7.3,1.9 0.45,-2.23 1.94,-0.21 1.14,1.84 v 0 l 1.69,1.71 -2.18,1.6 2.74,7.95 -1.66,2.38 2.95,-0.13 -1.74,2.51 1.87,0.63 -5.25,4.73 1.02,3.54 -1.94,2.76 4.96,3.56 -0.89,3.59 v 0 l -8.63,0.91 -0.37,1.13 3.39,1.1 v 1.4 l -3.76,1.11 1.47,4.100002 -5.37,-0.13 v 0 l -3.21,-1.37 -1.97,1.74 -5.91,-2.24 -3.530001,-3.380002 0.69,-3.96 -1.4,-2.27 -6.97,1.75 -2.14,-0.94 -7.49,7.950002 -2.01,-0.36 0.55,2.67 -1.65,1.42 -7.71,-1.45 -3.36,-4.940002 v 0 l -1.05,-1.86 -3.45,0.7 0.71,-6.44 -3.06,-1.27 2.03,-2 -1.66,-1.15 3.48,-0.33 z"
     style="fill:#cccccc;fill-opacity:1;stroke:#ffffff;stroke-width:0.5;stroke-opacity:1" />
  <path
     id="FR-52"
     title="Haute-Marne"
     class="land"
     d="m 53.727052,103.42552 5.37,0.13 -1.47,-4.100002 3.76,-1.11 v -1.4 l -3.39,-1.1 0.37,-1.13 8.63,-0.91 v 0 l 0.53,4.44 2.33,-1.16 0.58,2.28 1.99,0.03 3.85,4.200002 4.82,1.17 5.83,5.53999 v 0 l -3.14,1.84 2.01,0.74 -0.63,2.99 4.06,-1.03 8.59,9.55 -2.11,0.95 -0.41,4.41 -1.77,1.42 6.18,3.21 0.449998,5 2.47,-1.43 1.57,3.07 v 0 l -2.36,4.54 -2.789998,-0.45 -0.79,2.43 -2.1,-0.05 -0.01,8.38 -3.9,0.77 -1.22,-2.17 -1.74,2.12 -4.78,-0.09 -1.58,4.29 v 0 l -2.72,-0.27 -2.28,2.01 0.32,-2.79 -3.56,-1.84 0.21,-1.73 -2.53,2.08 -3.7,-3.94 -2.5,1.5 -0.4,-4.68 -1.8,-0.32 3.24,-3.24 -3.76,-6.27 -2.97,0.76 1.4,-1.95 -3.35,-1.36 0.35,-2.69 -3.66,-0.93 v 0 l 0.74,-1.51 -2.71,-2.09 3.05,-2.37 4.3,0.75 1.11,-9.98 -2,-3.53 1.1,-1.18 -5.56,-3.04 -3.22,-4.39999 z"
     style="fill:#cccccc;fill-opacity:1;stroke:#ffffff;stroke-width:0.5;stroke-opacity:1" />
  <path
     id="FR-54"
     title="Meurthe-et-Moselle"
     class="land"
     d="m 99.897052,38.525518 4.459998,3.89 v 0 l 2.25,1.98 -1.35,3.77 2.78,3.98 -1.28,1.22 2.4,0.94 1.52,4.48 -2.67,2.91 2.3,1.79 -2.09,1.35 0.91,2.06 -3.29,1.29 4.98,4.99 -0.1,2.25 3.07,0.57 0.67,2.09 7.41,0.86 -1.07,4.71 2.28,0.79 -1.6,0.61 2.25,0.76 0.1,2.05 3.11,-0.63 5.39,2.07 1.51,2.58 2.63,0.59 0.21,2.39 0.78,-1.09 6.94,3.98 3.17,-0.87 3.34,1.54 -0.7,1.1 3.44,3.630002 v 0 l 1.73,1.35 v 0 l -13.93,7.82999 -5.7,-2.49 -0.98,-2.78999 -2.24,1.99 0.5,1.54999 -1.89,-0.97 -6.01,2.51 -3.88,-2.7 -2.58,2.26 -3.43,-0.66 -1.42,3.45 -1.2,-1.88 -0.67,1.49 -4.55,0.62 -0.49,-2.88 -1.89,-0.26 1.12,-2.08 -3.13,1.49 2.04,-5.28999 -5.829998,-0.13 v 0 l 0.49,-2.71 -2.53,-3.030002 3.609998,-2.27 -1.839998,0.21 0.31,-4.97 -2.07,-2.78 2.63,-3.14 0.439998,-5.75 -1.779998,-1.94 4.249998,-2.21 -2.02,-2.14 2.2,-3.52 -2.01,-1.37 0.66,-2.75 -3.089998,-1.11 0.75,-4.59 -1.68,0.09 -0.09,-4.38 2.02,-2.65 -1.56,-0.23 -0.92,-3.39 1,-2.19 -4.25,-2.56 -6.19,3.49 -1.41,-1.12 2.35,-1.28 -3.17,-4.21 1.79,-0.67 v 0 l 3.46,-2.04 2.28,1.45 1.28,-2.73 4.3,0.72 z"
     style="fill:#cccccc;fill-opacity:1;stroke:#ffffff;stroke-width:0.5;stroke-opacity:1" />
  <path
     id="FR-55"
     title="Meuse"
     class="land"
     d="m 85.057052,35.915518 2.05,6.48 v 0 l -1.79,0.67 3.17,4.21 -2.35,1.28 1.41,1.12 6.19,-3.49 4.25,2.56 -1,2.19 0.92,3.39 1.56,0.23 -2.02,2.65 0.09,4.38 1.68,-0.09 -0.75,4.59 3.089998,1.11 -0.66,2.75 2.01,1.37 -2.2,3.52 2.02,2.14 -4.249998,2.21 1.779998,1.94 -0.439998,5.75 -2.63,3.14 2.07,2.78 -0.31,4.97 1.839998,-0.21 -3.609998,2.27 2.53,3.030002 -0.49,2.71 v 0 l -1.94,2.33 -3.17,-0.79 -0.86,2.88999 -6.32,0.31 v 0 l -5.83,-5.53999 -4.82,-1.17 -3.85,-4.200002 -1.99,-0.03 -0.58,-2.28 -2.33,1.16 -0.53,-4.44 v 0 l 0.89,-3.59 -4.96,-3.56 1.94,-2.76 -1.02,-3.54 5.25,-4.73 -1.87,-0.63 1.74,-2.51 -2.95,0.13 1.66,-2.38 -2.74,-7.95 2.18,-1.6 -1.69,-1.71 v 0 l 4.13,-2.35 -0.95,-3.89 3.05,-2.72 -1,-1.55 1.42,-3.52 -2.16,-2.72 2.22,-5.84 6.22,3.22 5.54,-4.77 v 0 z"
     style="fill:#cccccc;fill-opacity:1;stroke:#ffffff;stroke-width:0.5;stroke-opacity:1" />
  <path
     id="FR-57"
     title="Moselle"
     class="land"
     d="m 119.19705,41.675518 12.29,4.92 2.43,4.23 -1.4,1.18 4.27,4.26 2.87,7.33 4.02,0.7 0.11,-3.77 4.16,-0.64 3.95,2.04 0.72,4.86 1.98,-2.63 2.4,2.24 5.68,0.35 2.95,-3.57 3.31,-0.77 -0.37,1.2 2.42,-0.27 1.74,4.77 4.2,2.49 v 0 l -4.15,7.64 -3.52,-2.27 -5.24,1.58 -1.32,-1.92 -6.98,-2.02 -0.39,-4.01 -2.06,0.26 -1.46,6.89 -3.67,1.44 0.45,2.51 5.83,1.95 -1.83,1.16 1.13,3.74 4.43,-4.06 5.4,5.14 -3,4.72 2.58,2.01 -1.64,4.35 -4.15,3.940002 -3.69,-0.49 v 0 l -3.44,-3.630002 0.7,-1.1 -3.34,-1.54 -3.17,0.87 -6.94,-3.98 -0.78,1.09 -0.21,-2.39 -2.63,-0.59 -1.51,-2.58 -5.39,-2.07 -3.11,0.63 -0.1,-2.05 -2.25,-0.76 1.6,-0.61 -2.28,-0.79 1.07,-4.71 -7.41,-0.86 -0.67,-2.09 -3.07,-0.57 0.1,-2.25 -4.98,-4.99 3.29,-1.29 -0.91,-2.06 2.09,-1.35 -2.3,-1.79 2.67,-2.91 -1.52,-4.48 -2.4,-0.94 1.28,-1.22 -2.78,-3.98 1.35,-3.77 -2.25,-1.98 v 0 l 3.22,0.28 0.56,2.67 2.57,0.26 5.5,-3.96 z"
     style="fill:#cccccc;fill-opacity:1;stroke:#ffffff;stroke-width:0.5;stroke-opacity:1" />
  <path
     id="FR-67"
     title="Bas-Rhin"
     class="land"
     d="m 153.64705,103.15552 3.69,0.49 4.15,-3.940002 1.64,-4.35 -2.58,-2.01 3,-4.72 -5.4,-5.14 -4.43,4.06 -1.13,-3.74 1.83,-1.16 -5.83,-1.95 -0.45,-2.51 3.67,-1.44 1.46,-6.89 2.06,-0.26 0.39,4.01 6.98,2.02 1.32,1.92 5.24,-1.58 3.52,2.27 4.15,-7.64 v 0 l 6.52,-0.78 3,2.04 2.8,-1.54 12.4,5.8 -5.93,10.3 -4.88,2.84 -5.51,7.28 -4.42,15.419992 0.51,4.19 -2.14,1.58 -4.83,11.25 v 0 l -4.46,-2.45 0.29,-2.69 -6.7,-2.99 0.69,-1.2 -1.62,0.07 -0.7,-2.19 -3.2,-0.33 v 0 l -0.8,-1.83 -4.32,-0.79 1.75,-10.06999 v 0 z"
     style="fill:#cccccc;fill-opacity:1;stroke:#ffffff;stroke-width:0.5;stroke-opacity:1" />
  <path
     id="FR-68"
     title="Haut-Rhin"
     class="land"
     d="m 158.74705,117.19551 3.2,0.33 0.7,2.19 1.62,-0.07 -0.69,1.2 6.7,2.99 -0.29,2.69 4.46,2.45 v 0 l -0.3,5.37 2.19,3.85 -2.73,5.74 -0.36,8.96 -1.51,2.24 3.04,7.02 -3.57,2.67 1.31,0.71 -1.75,2.78 -2.37,-0.79 1,1.48 -2.87,2.38 -5.94,0.66 -3.04,-1.38 1.32,-3.07 -2.88,-0.55 v 0 l -1.93,-5.51 -3.35,-0.57 1.29,-7.41 -7.08,-3.67 -1.25,-2.43 v 0 l 3.46,-1.71 -0.96,-2.53 1.97,-6.73 5.53,-6.81 -0.72,-2.22 z"
     style="fill:#cccccc;fill-opacity:1;stroke:#ffffff;stroke-width:0.5;stroke-opacity:1" />
  <path
     id="FR-88"
     title="Vosges"
     class="land"
     d="m 155.37705,104.50552 -1.75,10.06999 4.32,0.79 0.8,1.83 v 0 l -5.8,10.26 0.72,2.22 -5.53,6.81 -1.97,6.73 0.96,2.53 -3.46,1.71 v 0 l -0.52,0.44 v 0 l -9.12,-8.1 -5.19,3.73 -3.69,-4.64 -7.68,1.77 -3.02,-5.68 -3.8,1.26 -3.75,4.18 -0.69,-2.57 -2.01,3.18 v 0 l -1.57,-3.07 -2.47,1.43 -0.449998,-5 -6.18,-3.21 1.77,-1.42 0.41,-4.41 2.11,-0.95 -8.59,-9.55 -4.06,1.03 0.63,-2.99 -2.01,-0.74 3.14,-1.84 v 0 l 6.32,-0.31 0.86,-2.88999 3.17,0.79 1.94,-2.33 v 0 l 5.829998,0.13 -2.04,5.28999 3.13,-1.49 -1.12,2.08 1.89,0.26 0.49,2.88 4.55,-0.62 0.67,-1.49 1.2,1.88 1.42,-3.45 3.43,0.66 2.58,-2.26 3.88,2.7 6.01,-2.51 1.89,0.97 -0.5,-1.54999 2.24,-1.99 0.98,2.78999 5.7,2.49 z"
     style="fill:#cccccc;fill-opacity:1;stroke:#ffffff;stroke-width:0.5;stroke-opacity:1"
     inkscape:label="FR-88" />
</svg>
